<?xml version="1.0" encoding="UTF-8" standalone="no"?>
<!-- Created with Inkscape (http://www.inkscape.org/) -->

<svg
   width="60"
   height="60"
   viewBox="0 0 15.875 15.875"
   version="1.1"
   id="svg5"
   inkscape:version="1.1.2 (0a00cf5339, 2022-02-04, custom)"
   sodipodi:docname="ajout.svg"
   xmlns:inkscape="http://www.inkscape.org/namespaces/inkscape"
   xmlns:sodipodi="http://sodipodi.sourceforge.net/DTD/sodipodi-0.dtd"
   xmlns="http://www.w3.org/2000/svg"
   xmlns:svg="http://www.w3.org/2000/svg">
  <sodipodi:namedview
     id="namedview7"
     pagecolor="#ffffff"
     bordercolor="#666666"
     borderopacity="1.0"
     inkscape:pageshadow="2"
     inkscape:pageopacity="0.0"
     inkscape:pagecheckerboard="0"
     inkscape:document-units="mm"
     showgrid="false"
     units="px"
     inkscape:zoom="10.274984"
     inkscape:cx="38.102249"
     inkscape:cy="27.250651"
     inkscape:window-width="1920"
     inkscape:window-height="1017"
     inkscape:window-x="1592"
     inkscape:window-y="-8"
     inkscape:window-maximized="1"
     inkscape:current-layer="layer1" />
  <defs
     id="defs2" />
  <g
     inkscape:label="Calque 1"
     inkscape:groupmode="layer"
     id="layer1">
    <path
       style="fill:#f4fff4;fill-opacity:0.996078;stroke:none;stroke-width:0.264583px;stroke-linecap:butt;stroke-linejoin:miter;stroke-opacity:1"
       d="m 7.9374999,-2.5e-8 c 0,0 -1.9843749,0.992187405 -1.984375,1.984374825 -10e-8,0.9921874 0.9921875,0.9921877 0.9921875,0.9921877 V 6.9453124 H 2.9765625 c 0,0 -2e-7,-0.9921874 -0.9921875,-0.9921875 C 0.99218774,5.9531248 -8.4604642e-8,7.9375004 -8.4604642e-8,7.9375004 c 0,0 0.992188064604642,1.9843744 1.984375084604642,1.9843745 0.992187,10e-8 0.9921869,-0.9921875 0.9921869,-0.9921875 h 3.9687505 v 3.9687506 c 0,0 -0.9921874,0 -0.9921875,0.992188 -10e-8,0.992189 1.984375,1.984373 1.984375,1.984373 0,0 1.9843749,-0.992185 1.984375,-1.984373 10e-8,-0.992188 -0.9921875,-0.992189 -0.9921875,-0.992189 V 8.9296874 h 3.9687506 c 0,0 0,0.9921876 0.992187,0.9921875 0.992187,-1e-7 1.984374,-1.984375 1.984374,-1.984375 0,0 -0.992185,-1.9843751 -1.984373,-1.984375 -0.992188,1e-7 -0.992189,0.9921875 -0.992189,0.9921875 H 8.9296874 l -3e-7,-3.9687499 c 0,0 0.9921871,3e-7 0.9921875,-0.9921874 C 9.921875,0.99218744 7.9374999,-2.5e-8 7.9374999,-2.5e-8 Z"
       id="path2430"
       sodipodi:nodetypes="czccczczccczczccczczccczc" />
  </g>
</svg>
