<?xml version="1.0" encoding="UTF-8" standalone="no"?>
<!-- Created with Inkscape (http://www.inkscape.org/) -->

<svg
   width="60"
   height="60"
   viewBox="0 0 15.875 15.875"
   version="1.1"
   id="svg5"
   inkscape:version="1.1.2 (0a00cf5339, 2022-02-04, custom)"
   sodipodi:docname="edition.svg"
   xmlns:inkscape="http://www.inkscape.org/namespaces/inkscape"
   xmlns:sodipodi="http://sodipodi.sourceforge.net/DTD/sodipodi-0.dtd"
   xmlns="http://www.w3.org/2000/svg"
   xmlns:svg="http://www.w3.org/2000/svg">
  <sodipodi:namedview
     id="namedview7"
     pagecolor="#ffffff"
     bordercolor="#666666"
     borderopacity="1.0"
     inkscape:pageshadow="2"
     inkscape:pageopacity="0.0"
     inkscape:pagecheckerboard="0"
     inkscape:document-units="mm"
     showgrid="false"
     units="px"
     inkscape:zoom="10.274984"
     inkscape:cx="42.189847"
     inkscape:cy="34.74458"
     inkscape:window-width="1920"
     inkscape:window-height="1017"
     inkscape:window-x="1592"
     inkscape:window-y="-8"
     inkscape:window-maximized="1"
     inkscape:current-layer="layer1" />
  <defs
     id="defs2" />
  <g
     inkscape:label="Calque 1"
     inkscape:groupmode="layer"
     id="layer1">
    <path
       id="path2625"
       style="fill:#ffffff;fill-opacity:0.95;stroke:none;stroke-width:0.999999px;stroke-linecap:butt;stroke-linejoin:miter;stroke-opacity:1"
       d="m 45,0 -7.5,7.5 c 0,0 4e-6,3.750001 5.625001,9.375002 C 48.749997,22.500003 52.5,22.5 52.5,22.5 L 60,15 C 60,7.5000015 52.5,0 45,0 Z m -11.25,11.25 -22.5,22.5 c -1.8749981,7.499997 5.625002,9.374997 5.625002,9.374997 0,0 1.874998,7.5 9.374998,5.625003 l 22.5,-22.5 c 0,0 -3.750003,-1e-6 -9.375,-5.625 C 33.750004,15.000002 33.75,11.25 33.75,11.25 Z M 7.5,37.5 0,60 22.5,52.5 c -7.500001,1.875001 -9.375001,-5.624999 -9.375001,-5.624999 0,0 -7.4999998,0 -5.624999,-9.375001 z"
       sodipodi:nodetypes="cczcccccccczcccccc"
       transform="scale(0.26458333)" />
  </g>
</svg>
