<?xml version="1.0" encoding="UTF-8" standalone="no"?>
<!-- Created with Inkscape (http://www.inkscape.org/) -->

<svg
   width="60"
   height="60"
   viewBox="0 0 15.875 15.875"
   version="1.1"
   id="svg5"
   inkscape:version="1.1.2 (0a00cf5339, 2022-02-04, custom)"
   sodipodi:docname="logo.svg"
   xmlns:inkscape="http://www.inkscape.org/namespaces/inkscape"
   xmlns:sodipodi="http://sodipodi.sourceforge.net/DTD/sodipodi-0.dtd"
   xmlns="http://www.w3.org/2000/svg"
   xmlns:svg="http://www.w3.org/2000/svg">
  <sodipodi:namedview
     id="namedview7"
     pagecolor="#ffffff"
     bordercolor="#666666"
     borderopacity="1.0"
     inkscape:pageshadow="2"
     inkscape:pageopacity="0.0"
     inkscape:pagecheckerboard="0"
     inkscape:document-units="mm"
     showgrid="false"
     units="px"
     inkscape:zoom="10.274984"
     inkscape:cx="43.260408"
     inkscape:cy="32.116838"
     inkscape:window-width="1920"
     inkscape:window-height="1017"
     inkscape:window-x="1592"
     inkscape:window-y="-8"
     inkscape:window-maximized="1"
     inkscape:current-layer="layer1" />
  <defs
     id="defs2" />
  <g
     inkscape:label="Calque 1"
     inkscape:groupmode="layer"
     id="layer1">
    <path
       id="path2518"
       style="fill:#00c71d;fill-opacity:0.996078;stroke:none;stroke-width:0.999999px;stroke-linecap:butt;stroke-linejoin:miter;stroke-opacity:1"
       d="M 0 0 C 3.0954343 4.6431516 3.6293866 12.492567 3.9863281 20.625 L 18.494141 20.625 C 14.873261 16.482566 10.250993 11.172526 3.75 3.75 C 12.646839 11.534735 18.534289 16.650061 22.865234 20.625 L 56.345703 20.625 C 55.275432 17.0555 52.957965 13.774777 48.75 11.25 C 30.000013 -9.598244e-07 11.25 7.5 0 0 z M 3.75 22.5 L 3.75 30 L 18.75 30 L 18.75 22.5 L 3.75 22.5 z M 22.525391 22.5 L 22.525391 25.216797 L 22.525391 30 L 26.792969 30 L 32.029297 30 L 37.525391 30 L 37.525391 22.5 L 32.029297 22.5 L 24.876953 22.5 L 22.525391 22.5 z M 41.25 22.5 L 41.25 30 L 56.25 30 L 56.25 22.5 L 41.25 22.5 z M 39.375 31.875 L 39.375 40.230469 L 39.375 43.076172 L 39.375 43.125 L 39.423828 43.125 L 41.310547 43.125 L 58.150391 43.125 L 58.150391 31.875 L 39.375 31.875 z M 3.75 33.75 L 3.75 41.25 L 18.75 41.25 L 18.75 33.75 L 3.75 33.75 z M 22.5 33.75 L 22.5 41.25 L 37.5 41.25 L 37.5 41.1875 L 37.5 37.451172 L 37.5 33.75 L 30.259766 33.75 L 22.5 33.75 z M 41.275391 33.75 L 56.275391 33.75 L 56.275391 41.25 L 41.310547 41.25 L 41.310547 40.230469 L 41.275391 40.230469 L 41.275391 33.75 z M 6.9609375 43.125 C 7.9575262 45.517404 9.3242599 47.469064 11.25 48.75 C 22.52539 56.250004 45.050781 52.5 45.050781 52.5 C 45.050781 52.5 48.800781 52.500008 56.300781 60 L 60.050781 56.25 C 52.550781 52.500009 48.800781 48.75 48.800781 48.75 C 48.800781 48.75 49.81744 47.301617 51.125 45 L 42.556641 45 C 43.380435 46.240893 44.086446 47.308377 45.050781 48.75 C 43.604522 47.305696 42.501795 46.203004 41.298828 45 L 37.5 45 L 37.5 43.125 L 6.9609375 43.125 z "
       transform="scale(0.26458333)" />
  </g>
</svg>
