<?xml version="1.0" encoding="UTF-8" standalone="no"?>
<!-- Created with Inkscape (http://www.inkscape.org/) -->

<svg
   width="900"
   height="900"
   viewBox="0 0 238.125 238.125"
   version="1.1"
   id="svg5"
   inkscape:version="1.1.2 (0a00cf5339, 2022-02-04, custom)"
   sodipodi:docname="ticket.svg"
   xmlns:inkscape="http://www.inkscape.org/namespaces/inkscape"
   xmlns:sodipodi="http://sodipodi.sourceforge.net/DTD/sodipodi-0.dtd"
   xmlns="http://www.w3.org/2000/svg"
   xmlns:svg="http://www.w3.org/2000/svg">
  <sodipodi:namedview
     id="namedview7"
     pagecolor="#ffffff"
     bordercolor="#666666"
     borderopacity="1.0"
     inkscape:pageshadow="2"
     inkscape:pageopacity="0.0"
     inkscape:pagecheckerboard="0"
     inkscape:document-units="mm"
     showgrid="false"
     units="px"
     inkscape:zoom="0.4648913"
     inkscape:cx="465.57579"
     inkscape:cy="494.85643"
     inkscape:window-width="1920"
     inkscape:window-height="1017"
     inkscape:window-x="1592"
     inkscape:window-y="-8"
     inkscape:window-maximized="1"
     inkscape:current-layer="layer1"
     width="300px" />
  <defs
     id="defs2" />
  <g
     inkscape:label="Calque 1"
     inkscape:groupmode="layer"
     id="layer1">
    <path
       id="path4893"
       style="fill:#cbc9c5;fill-opacity:1;stroke:none;stroke-width:0.793749px;stroke-linecap:butt;stroke-linejoin:miter;stroke-opacity:1"
       d="M 210.34373,-5.7220458e-6 11.90625,7.93751 c 0,0 4.1e-5,182.56249 7.937542,206.37499 7.937502,23.81249 7.937502,23.81249 7.937502,23.81249 l 198.437476,-7.9375 c 0,0 2e-5,0 -7.93751,-23.81253 C 210.34373,182.56245 210.34373,-5.7220458e-6 210.34373,-5.7220458e-6 Z"
       sodipodi:nodetypes="cczcczc" />
    <rect
       style="fill:#99938b;fill-opacity:1;stroke:none;stroke-width:0.403602"
       id="rect7643"
       width="166.6875"
       height="4.1044345"
       x="27.020115"
       y="23.39784"
       ry="2.0522172"
       inkscape:transform-center-x="0.0033538186"
       inkscape:transform-center-y="-0.17543545"
       transform="rotate(-2.2205027)" />
    <rect
       style="fill:#99938b;fill-opacity:1;stroke:none;stroke-width:0.403602"
       id="rect7643-6"
       width="166.6875"
       height="4.1044345"
       x="24.867327"
       y="78.918625"
       ry="2.0522172"
       inkscape:transform-center-x="0.0033539294"
       inkscape:transform-center-y="-0.175435"
       transform="rotate(-2.2205027)" />
    <rect
       style="fill:#99938b;fill-opacity:1;stroke:none;stroke-width:0.403602"
       id="rect7643-4"
       width="166.6875"
       height="4.1044345"
       x="27.878279"
       y="202.02637"
       ry="2.0522172"
       inkscape:transform-center-x="0.0033538362"
       inkscape:transform-center-y="-0.17543722"
       transform="rotate(-2.2205027)" />
    <rect
       style="fill:#99938b;fill-opacity:1;stroke:none;stroke-width:0.403602"
       id="rect7643-9"
       width="166.6875"
       height="4.1044345"
       x="35.194733"
       y="222.30141"
       ry="2.0522172"
       inkscape:transform-center-x="0.0033543075"
       inkscape:transform-center-y="-0.175436"
       transform="rotate(-2.2205027)" />
    <rect
       style="fill:#99938b;fill-opacity:1;stroke:none;stroke-width:0.277208"
       id="rect7643-61-6"
       width="78.637016"
       height="4.1042581"
       x="113.05936"
       y="153.9982"
       ry="2.052129"
       inkscape:transform-center-x="0.0015992554"
       inkscape:transform-center-y="-0.17545636"
       transform="matrix(0.99928195,-0.03788899,0.01840597,0.9998306,0,0)" />
    <rect
       style="fill:#99938b;fill-opacity:1;stroke:none;stroke-width:0.277208"
       id="rect7643-61-6-2"
       width="78.636978"
       height="4.1042581"
       x="112.91328"
       y="166.03577"
       ry="2.052129"
       inkscape:transform-center-x="0.0016082807"
       inkscape:transform-center-y="-0.17546938"
       transform="matrix(0.99928195,-0.03788901,0.01840596,0.9998306,0,0)" />
    <rect
       style="fill:#99938b;fill-opacity:1;stroke:none;stroke-width:0.277208"
       id="rect7643-61-6-4"
       width="78.637016"
       height="4.1042581"
       x="115.40014"
       y="63.28014"
       ry="2.052129"
       inkscape:transform-center-x="0.0015916267"
       inkscape:transform-center-y="-0.17546396"
       transform="matrix(0.99928195,-0.03788899,0.01840597,0.9998306,0,0)" />
    <rect
       style="fill:#99938b;fill-opacity:1;stroke:#99938b;stroke-width:0.277208;stroke-opacity:1"
       id="rect7643-61-6-2-3"
       width="78.636978"
       height="4.1042581"
       x="27.35247"
       y="63.423008"
       ry="2.052129"
       inkscape:transform-center-x="0.0016084688"
       inkscape:transform-center-y="-0.17546212"
       transform="matrix(0.99928195,-0.03788901,0.01840596,0.9998306,0,0)" />
    <path
       style="fill:none;fill-opacity:1;stroke:#99938b;stroke-width:3.6;stroke-linecap:round;stroke-linejoin:round;stroke-miterlimit:4;stroke-dasharray:none;stroke-opacity:1"
       d="m 35.718731,39.687534 c 5.699013,3.88221 9.16827,10.581158 16.216367,12.401912 2.029482,0.524283 13.754736,0.754299 15.366603,-0.422982 2.587799,-1.890087 2.499938,-9.347675 6.40571,-11.950106 0.941826,-0.62754 10.115052,2.901609 10.670423,2.990613 8.234037,1.319571 2.106534,-0.701058 9.817917,-1.704918 5.60778,-0.730014 9.906599,3.237552 15.365519,3.84549 1.11223,0.12387 12.82687,-0.14685 13.23226,0.0033 0.87031,0.322383 0.15846,1.849434 0.23769,2.774151"
       id="path8938" />
    <path
       style="fill:none;stroke:#99938b;stroke-width:3.6;stroke-linecap:round;stroke-linejoin:miter;stroke-miterlimit:4;stroke-dasharray:none;stroke-opacity:1"
       d="m 123.03124,103.18749 c 4.4839,1.57495 9.57446,4.16839 14.60505,2.28336 7.79048,-2.9192 3.93584,-10.228068 14.0881,-8.533395 6.80689,1.136244 1.17736,0.993852 6.40206,2.562693 2.06796,0.620962 4.73208,-0.482871 6.82955,0.0016 2.12052,0.489908 10.36935,6.469762 11.09652,5.978652 0.94551,-0.63857 1.69413,-1.52869 2.5412,-2.29303"
       id="path19971" />
    <path
       style="fill:none;stroke:#99938b;stroke-width:3.6;stroke-linecap:round;stroke-linejoin:miter;stroke-miterlimit:4;stroke-dasharray:none;stroke-opacity:1"
       d="m 59.531257,103.1875 c 0.902643,-1.23672 1.204797,-3.418894 2.707926,-3.710176 4.611753,-0.893685 12.952895,2.429506 17.499872,3.419176 1.177899,0.25638 2.422077,0.0574 3.604704,0.291"
       id="path19975" />
    <path
       style="fill:none;stroke:#99938b;stroke-width:3.6;stroke-linecap:round;stroke-linejoin:miter;stroke-miterlimit:4;stroke-dasharray:none;stroke-opacity:1"
       d="m 130.96875,134.93749 c 4.89658,-13.47181 13.22875,-6.0911 21.25587,-5.13668 5.22954,0.62179 10.52814,0.31503 15.79324,0.43082 0.98072,0.0216 8.53631,0.56285 8.96378,0.002 0.73036,-0.95779 1.07474,-2.15593 1.61211,-3.2339"
       id="path19977" />
    <path
       style="fill:none;stroke:#99938b;stroke-width:3.6;stroke-linecap:round;stroke-linejoin:miter;stroke-miterlimit:4;stroke-dasharray:none;stroke-opacity:1"
       d="m 83.343768,182.56248 c 1.841213,-0.008 3.691874,0.16332 5.523626,-0.0231 9.410715,-0.95818 18.726346,-2.91289 28.172766,-3.40769 1.53033,-0.0802 2.76405,1.41461 4.26804,1.70846 4.36479,0.85281 8.80563,1.27777 13.23182,1.71071 3.75505,0.36731 7.74497,0.002 11.52488,0.003 0.99597,2.6e-4 1.99195,5.1e-4 2.98793,7.6e-4 0.42685,1.1e-4 1.70738,-0.002 1.28054,3.2e-4 -1.1632,0.004 -2.32641,0.005 -3.48961,0.008"
       id="path19979" />
    <path
       style="fill:none;stroke:#99938b;stroke-width:3.6;stroke-linecap:round;stroke-linejoin:miter;stroke-miterlimit:4;stroke-dasharray:none;stroke-opacity:1"
       d="m 35.718767,182.56292 c -0.08793,0.91033 -0.990639,2.17597 -0.26376,2.73102 1.017762,0.77713 2.561082,6.4e-4 3.841623,7.9e-4 1.412796,3.6e-4 12.60086,0.45666 13.659104,0.003 0.653961,-0.28008 1.40943,-0.63425 1.707714,-1.28011 0.841374,-1.82177 0.422838,-10.24093 1.283223,-10.67085 0.799662,-0.39958 2.702598,0.53471 3.414777,7.9e-4 10.578812,-7.92995 -1.966644,1.11218 3.415854,-4.26761 0.501102,-0.50086 2.763924,0.261 3.414777,7.9e-4 1.725578,-0.68972 2.166053,-2.19622 2.988896,-3.84086 0.20133,-0.40239 0.770787,-1.5709 0.427164,-1.28044 -0.882498,0.74597 -1.426242,1.81849 -2.139363,2.72775"
       id="path19983" />
  </g>
</svg>
